<?xml version="1.0" encoding="UTF-8"?>
<svg width="24px" height="24px" viewBox="0 0 24 24" version="1.1" xmlns="http://www.w3.org/2000/svg" xmlns:xlink="http://www.w3.org/1999/xlink">
    <!-- Generator: Sketch 52.3 (67297) - http://www.bohemiancoding.com/sketch -->
    <title>icon-search</title>
    <desc>Created with Sketch.</desc>
    <g id="icon-search" stroke="none" stroke-width="1" fill="none" fill-rule="evenodd">
        <path d="M15.3134615,14.4431538 C16.2229231,13.3399231 16.7692308,11.9260769 16.7692308,10.3846154 C16.7692308,6.8585 13.9107308,4 10.3846154,4 C6.8585,4 4,6.8585 4,10.3846154 C4,13.9107308 6.8585,16.7692308 10.3846154,16.7692308 C11.9260769,16.7692308 13.3398846,16.2229231 14.4431538,15.3134615 L19.1033077,19.9736154 L19.9736154,19.1033462 L15.3134615,14.4431538 Z M5.23076923,10.3846154 C5.23076923,9.00796154 5.76684615,7.71373077 6.74030769,6.74030769 C7.71373077,5.76688462 9.00796154,5.23076923 10.3846154,5.23076923 C11.7612692,5.23076923 13.0555,5.76688462 14.0289231,6.74030769 C15.0023462,7.71373077 15.5384615,9.00796154 15.5384615,10.3846154 C15.5384615,11.7612692 15.0023462,13.0555 14.0289231,14.0289231 C13.0555,15.0023846 11.7612692,15.5384615 10.3846154,15.5384615 C9.00796154,15.5384615 7.71373077,15.0023846 6.74030769,14.0289231 C5.76684615,13.0555 5.23076923,11.7612692 5.23076923,10.3846154 Z" id="Imported-Layers" fill="#000000"></path>
    </g>
</svg>
