<?xml version="1.0" encoding="UTF-8" standalone="no"?>
<!-- Created with Inkscape (http://www.inkscape.org/) -->
<svg
   xmlns:svg="http://www.w3.org/2000/svg"
   xmlns="http://www.w3.org/2000/svg"
   version="1.0"
   width="377.11343"
   height="519.25897">
  <defs />
  <path
     d="M 110.10723,381.23701 C 111.12723,381.24576 112.06973,381.25076 112.90473,381.25576 C 111.65473,382.26201 110.33598,383.55576 108.98848,384.92826 L 108.95473,384.96201 L 108.09598,384.21951 C 108.75973,383.25826 109.43348,382.25701 110.10723,381.23701 z"
     style="fill:#ffffff;stroke-width:1;stroke-linejoin:miter;marker-start:none;marker-end:none;stroke-miterlimit:79.84031677" />
  <path
     d="M 72.29973,121.05328 C 76.30348,117.95953 81.698479,116.71953 87.919729,117.42203 C 92.533478,111.65328 98.598478,108.95078 105.49723,109.60953 C 114.98473,110.51828 124.34973,117.74453 129.03723,124.96828 C 150.55597,141.75828 159.86347,153.93078 163.35847,169.84952 C 167.11097,186.93702 163.65972,208.92827 156.38847,240.99202 C 156.61097,241.03077 156.83097,241.06952 157.05097,241.10952 C 157.53847,237.54202 158.87222,234.18327 161.03972,231.13327 C 166.82597,222.99577 173.57347,218.81952 181.09597,218.71452 C 189.97472,218.59202 199.61847,224.36827 209.22347,235.48827 C 205.77597,225.85952 203.57347,212.79827 202.94847,194.20952 C 202.02597,166.71452 212.47972,153.59203 221.41597,147.42703 C 233.08597,139.37328 247.36347,139.55578 256.33222,143.31078 C 276.92846,151.93453 290.23846,179.58827 290.23846,213.76077 C 290.23846,233.96327 294.57721,238.06952 296.80346,238.59452 C 300.79346,239.53702 306.81096,231.64827 313.46596,218.34327 C 330.78096,183.70702 335.29221,184.77327 336.77721,185.12327 C 339.13596,185.67952 339.40346,189.36827 339.40346,192.09577 C 339.40346,204.41702 338.00721,215.61077 335.26846,225.66952 C 349.49721,203.93077 359.31096,176.08952 352.21596,165.57202 C 349.44846,161.46577 344.19846,160.32327 336.60596,162.17327 C 336.10346,162.29577 335.59596,161.98827 335.47346,161.48452 C 335.35096,160.98202 335.65846,160.47452 336.16221,160.35202 C 337.42096,160.04452 338.62221,159.82452 339.76971,159.67077 C 338.11971,148.94078 334.74096,138.17703 329.75596,127.53703 C 329.71596,127.47578 329.68721,127.41578 329.66721,127.34453 C 313.77346,93.57953 281.71346,61.079533 237.57347,34.878285 C 181.70847,1.7170374 145.88347,1.8170374 124.47723,1.8807874 L 124.02848,1.8807874 C 144.54597,23.110786 160.48847,53.728283 163.04597,77.095781 C 163.08097,77.395781 162.96597,77.693281 162.73847,77.895781 C 162.51472,78.095781 162.20472,78.179531 161.90847,78.110781 C 101.99223,64.629532 50.443482,91.17203 33.147233,107.23703 C 50.245982,110.70828 65.287231,121.78328 68.92598,124.61703 C 69.84848,123.27703 70.97098,122.08078 72.29973,121.05328 M 279.80471,147.01953 C 279.88721,147.54703 262.44596,127.35703 241.56722,126.17703 C 231.70347,124.90328 220.66347,128.97578 215.27847,135.46203 C 209.61847,141.67078 208.01722,147.71078 207.52347,147.47578 C 207.51472,147.51953 207.71472,143.93578 211.70847,137.83203 C 215.24847,131.85828 225.36097,123.22328 241.21597,124.48828 C 256.85472,126.03578 266.56221,133.73078 272.17221,138.58703 C 277.87096,143.67703 279.84846,147.00953 279.80471,147.01953 M 212.11347,107.92578 C 212.11347,98.08703 216.34722,78.287031 221.80097,67.503282 C 222.01597,67.075782 222.51972,66.880782 222.96347,67.049532 C 236.45472,72.107032 246.91847,88.10828 250.56597,95.86203 C 250.70222,96.15328 250.68347,96.49203 250.50722,96.76328 C 250.33597,97.03453 250.03847,97.19828 249.71597,97.19828 C 235.91722,97.19828 220.10222,102.20328 213.71597,108.58953 C 213.44722,108.85828 213.04597,108.93578 212.69472,108.79203 C 212.34347,108.64828 212.11347,108.30578 212.11347,107.92578 M 213.28097,53.620783 C 215.88347,51.565783 218.26097,50.703283 219.97472,51.192033 C 226.41597,53.033283 253.89097,72.508282 266.38096,96.24078 C 266.62596,96.69953 266.44971,97.26578 265.99096,97.50578 C 265.53221,97.74703 264.96596,97.57203 264.72096,97.11453 C 252.44097,73.772032 225.01472,54.583283 219.46222,52.993283 C 218.62222,52.754533 216.86472,53.179533 214.44347,55.093283 C 207.01597,60.962033 194.87722,80.439531 196.48847,116.21828 C 196.51347,116.73703 196.11347,117.17328 195.59597,117.19828 C 195.07722,117.22203 194.63847,116.82203 194.61847,116.30453 C 193.07597,82.139531 203.71097,61.184533 213.28097,53.620783 z"
     style="fill:#007fff;stroke-width:1;stroke-linejoin:miter;marker-start:none;marker-end:none;stroke-miterlimit:79.84031677" />
  <path
     d="M 132.52223,162.69577 C 130.91223,164.60327 128.81598,166.01327 126.25473,166.91952 C 126.06473,175.65952 121.63973,181.23577 113.99848,182.38327 C 114.02348,199.37577 113.89598,201.73827 109.02848,206.60952 L 108.94973,206.68577 C 101.93848,213.69702 93.998478,221.62452 79.715979,217.41327 C 77.978479,219.41452 75.92473,221.14827 73.74473,222.11452 C 68.66723,224.37077 57.802231,228.57952 50.512232,227.07077 C 43.920982,237.50077 42.489732,251.73702 42.192232,256.50952 C 84.077229,233.38952 117.09973,236.51952 129.61848,237.71577 C 131.17098,237.86202 132.44098,237.98202 133.39348,238.02327 C 139.41847,221.25577 150.07722,190.77702 132.52223,162.69577 z"
     style="fill:#007fff;stroke-width:1;stroke-linejoin:miter;marker-start:none;marker-end:none;stroke-miterlimit:79.84031677" />
  <path
     d="M 116.63098,394.02951 L 107.00223,385.75826 C 102.03098,392.74576 97.284728,398.11201 92.787228,401.83201 L 100.09723,407.872 C 104.51598,405.12326 111.70348,400.12326 116.63098,394.02951 z"
     style="fill:#007fff;stroke-width:1;stroke-linejoin:miter;marker-start:none;marker-end:none;stroke-miterlimit:79.84031677" />
  <path
     d="M 115.76598,356.71076 C 116.15723,356.61201 116.54723,356.51451 116.93348,356.40701 L 129.51598,341.78826 C 123.44973,339.79076 117.86598,336.33451 112.68973,331.37326 L 107.19723,336.83201 C 111.86973,339.80076 114.74848,346.49076 115.76598,356.71076 z"
     style="fill:#007fff;stroke-width:1;stroke-linejoin:miter;marker-start:none;marker-end:none;stroke-miterlimit:79.84031677" />
  <path
     d="M 173.58097,345.89951 C 176.32347,345.28951 179.38972,344.50826 182.59472,343.69201 C 195.34097,340.44576 204.09597,338.44826 207.50472,340.47451 C 207.65097,339.09826 207.73847,337.67701 207.73847,336.26076 C 207.73847,335.74326 208.15847,335.32326 208.67597,335.32326 C 209.19347,335.32326 209.61347,335.74326 209.61347,336.26076 C 209.61347,336.88951 209.59722,337.51576 209.56597,338.13576 C 209.56597,338.15451 209.56597,338.17201 209.56472,338.18951 C 209.54597,338.54076 209.51597,338.88326 209.49222,339.22451 C 209.48722,339.29826 209.47972,339.36826 209.47472,339.44201 C 209.45972,339.64201 209.44722,339.84201 209.42847,340.03576 C 209.39597,340.39576 209.35347,340.74326 209.31347,341.09201 C 209.29847,341.21826 209.28847,341.34701 209.27222,341.47076 C 209.27097,341.47826 209.27097,341.48451 209.26972,341.49201 C 209.25597,341.58701 209.24597,341.68326 209.23347,341.77826 C 209.15972,342.33576 209.08222,342.88201 208.99847,343.41951 C 208.99847,343.41951 208.99847,343.41951 208.99847,343.42451 L 208.99722,343.42576 C 208.99472,343.43076 208.99347,343.43451 208.99347,343.43826 C 208.89097,344.07826 208.77972,344.68701 208.66597,345.28076 C 208.65472,345.33951 208.64347,345.39451 208.63222,345.45201 C 208.52472,345.99951 208.41472,346.52576 208.30472,347.02451 C 208.29597,347.06326 208.28722,347.10201 208.27847,347.14076 C 208.16472,347.64951 208.04972,348.13826 207.93972,348.58576 C 207.92972,348.60951 207.92472,348.63951 207.91972,348.66326 C 207.79722,349.13701 207.68472,349.57201 207.57722,349.96201 C 209.81472,348.84451 212.08472,347.91076 214.34597,347.23701 C 223.65222,344.45951 230.46847,344.01951 235.06847,345.89951 C 236.78222,339.38576 238.24222,330.27451 236.45472,328.48701 C 229.17972,321.21701 205.98097,320.75326 185.65347,327.43326 C 182.06972,333.96076 177.85597,340.21576 173.58097,345.89951 z"
     style="fill:#007fff;stroke-width:1;stroke-linejoin:miter;marker-start:none;marker-end:none;stroke-miterlimit:79.84031677" />
  <path
     d="M 205.40972,292.25701 C 204.50597,291.94951 203.60847,291.63701 202.72472,291.30451 C 190.92472,286.88076 180.48347,280.52327 172.54847,273.24327 C 172.24597,282.64326 170.07472,295.31826 167.88097,306.03201 C 169.45722,303.17451 170.98597,300.23576 172.52347,297.09576 C 176.66722,288.64326 183.33472,286.77326 187.77847,288.61451 C 193.34472,290.91951 196.92847,299.20076 192.37722,312.50076 C 190.93222,316.72951 189.05972,320.93826 186.91847,325.05951 C 189.79972,324.18076 192.71472,323.43826 195.61472,322.83326 C 199.76097,318.42451 206.45972,302.48201 205.40972,292.25701 z"
     style="fill:#007fff;stroke-width:1;stroke-linejoin:miter;marker-start:none;marker-end:none;stroke-miterlimit:79.84031677" />
  <path
     d="M 207.34347,292.88701 C 207.76347,299.29326 205.62472,307.26201 202.92972,313.70701 C 208.05097,312.85826 223.21722,311.27076 235.96097,319.26826 C 236.12722,315.30826 236.22972,304.85951 233.11972,298.00451 C 224.27222,297.15951 215.45847,295.46951 207.34347,292.88701 z"
     style="fill:#007fff;stroke-width:1;stroke-linejoin:miter;marker-start:none;marker-end:none;stroke-miterlimit:79.84031677" />
  <path
     d="M 353.77346,164.52202 C 355.96096,167.76952 356.70846,172.38327 356.34721,177.82327 C 366.51846,165.70327 375.23846,139.76328 375.23846,134.38578 C 375.23846,131.48703 363.87221,128.11578 332.02596,128.01328 C 336.78721,138.43578 340.03346,148.97328 341.63596,159.48577 C 347.20221,159.14327 351.27846,160.82327 353.77346,164.52202 z"
     style="fill:#007fff;stroke-width:1;stroke-linejoin:miter;marker-start:none;marker-end:none;stroke-miterlimit:79.84031677" />
  <path
     d="M 223.09597,69.145782 C 217.95847,79.790781 214.55472,96.71203 214.06222,105.79703 C 221.25472,100.04453 235.42472,95.67953 248.22222,95.35703 C 244.75597,88.63828 235.25347,74.170782 223.09597,69.145782 z"
     style="fill:#ffccb2;stroke-width:1;stroke-linejoin:miter;marker-start:none;marker-end:none;stroke-miterlimit:79.84031677" />
  <path
     d="M 134.97472,239.17077 C 134.50597,240.48202 134.08223,241.66577 133.70598,242.75202 C 140.40472,240.53827 147.50972,239.81952 154.53097,240.71827 C 169.53597,174.57077 166.39347,157.35452 131.28348,129.13578 C 135.33597,137.97203 138.44722,150.43953 134.81472,158.96577 C 134.49722,159.71202 134.11597,160.39577 133.70848,161.05327 C 152.50472,190.36702 141.11722,222.08577 134.97472,239.17077 z"
     style="fill:#ffccb2;stroke-width:1;stroke-linejoin:miter;marker-start:none;marker-end:none;stroke-miterlimit:79.84031677" />
  <path
     d="M 104.85848,305.27951 C 107.18223,310.96826 107.81723,318.93201 107.98848,323.35076 C 117.69973,335.75826 128.94973,341.85201 142.35347,341.97826 C 142.55347,341.74951 142.75847,341.52451 142.95347,341.29076 C 152.88597,329.20076 159.38222,320.39201 164.85847,311.27576 C 168.63222,293.96076 170.64847,280.22577 170.70722,271.49577 C 164.53097,265.41077 160.10472,258.76577 158.07097,252.11702 C 157.10847,248.98202 156.72347,245.92077 156.87972,242.98452 C 148.72972,241.45077 140.37097,242.22702 132.64098,245.11077 C 132.61473,245.12452 132.58473,245.13202 132.55848,245.14202 C 128.16348,246.79202 123.96973,249.10702 120.14598,252.08077 C 110.95723,259.22202 99.779728,273.27702 98.355978,299.74201 C 101.03223,300.25076 103.37848,301.66576 104.85848,305.27951 z"
     style="fill:#ffccb2;stroke-width:1;stroke-linejoin:miter;marker-start:none;marker-end:none;stroke-miterlimit:79.84031677" />
  <path
     d="M 187.05972,290.34826 C 183.40347,288.82951 177.81722,290.55326 174.20847,297.92076 C 166.59097,313.45326 159.34972,324.28326 144.40097,342.48201 C 144.09097,342.85826 143.76472,343.22326 143.43722,343.58951 C 136.78722,351.05576 127.41473,355.49451 117.86598,358.09201 C 117.75348,358.15076 117.63098,358.17951 117.50723,358.18951 C 116.72848,358.39951 115.94723,358.59451 115.16598,358.78076 C 115.11723,358.79576 115.07348,358.81951 115.01973,358.82451 C 115.00973,358.82451 115.00473,358.81951 114.99473,358.81951 C 111.49848,359.63951 108.01723,360.22576 104.67223,360.64576 C 104.42348,360.93826 104.01348,361.06576 103.62723,360.92451 C 103.54973,360.89451 103.48848,360.84076 103.42223,360.79201 C 98.398478,361.36326 93.724728,361.55451 89.843479,361.56826 C 88.329729,363.75076 86.752229,366.45576 85.145979,369.79076 C 83.473479,373.26826 82.372229,376.35826 81.845979,378.95201 C 86.782229,379.03951 106.97473,379.38576 114.30098,379.38576 C 115.05848,379.38576 115.87348,379.36201 116.71848,379.32701 C 116.72348,379.32701 116.72848,379.32701 116.72848,379.32701 C 116.73348,379.32701 116.73348,379.32701 116.73848,379.32701 C 118.54473,379.24951 120.54223,379.09326 122.65098,378.84451 C 122.67598,378.83951 122.68973,378.82951 122.71473,378.82451 C 122.73848,378.82451 122.76348,378.83451 122.78723,378.82951 C 132.90473,377.62826 145.49722,374.36701 151.76472,368.09701 C 158.75722,361.10451 182.22597,336.38326 190.60222,311.89576 C 194.76097,299.74201 191.81847,292.31576 187.05972,290.34826 z"
     style="fill:#ffccb2;stroke-width:1;stroke-linejoin:miter;marker-start:none;marker-end:none;stroke-miterlimit:79.84031677" />
  <path
     d="M 282.43596,275.04952 C 281.95721,272.21327 283.72471,269.26827 286.96721,266.75452 C 281.42096,264.94202 273.45221,265.68952 265.13096,266.46827 C 253.91097,267.52077 242.31472,268.60952 234.24222,263.86827 C 225.11722,258.50702 217.36347,252.92327 211.83597,241.70952 C 201.26472,227.76452 190.64847,220.45952 181.12222,220.58952 C 174.22847,220.68452 167.98847,224.59827 162.56847,232.21952 C 158.62222,237.76702 157.68472,244.45827 159.86347,251.56827 C 161.83597,258.01577 166.16722,264.46952 172.22347,270.38202 C 172.27972,270.42577 172.32597,270.46952 172.36972,270.52827 C 180.26597,278.18952 191.06472,284.93326 203.38347,289.55201 C 235.64472,301.65201 284.45721,297.77451 294.41846,282.51076 C 287.87096,281.69576 283.09596,278.97577 282.43596,275.04952 M 209.72097,275.94827 C 209.84347,275.86577 207.97847,268.50702 201.36222,262.54202 C 195.23347,256.40202 187.25347,250.37702 183.20722,247.24202 C 182.35097,246.55827 182.44597,246.05577 182.82722,245.86952 C 175.62972,248.72827 177.19472,254.60327 176.29347,254.07327 C 175.61722,254.60952 175.65847,245.76702 182.47472,244.20702 C 188.29597,242.27077 194.61847,245.64077 194.25722,246.05327 C 194.04472,247.12952 190.68847,244.15077 183.09597,245.75452 C 183.02972,245.77952 182.97847,245.80827 182.91472,245.83327 C 183.16347,245.75202 183.49097,245.78702 183.76972,245.97202 C 187.08222,248.16702 195.24847,254.23702 201.60097,260.89702 C 208.63722,267.19827 210.49222,275.97827 209.72097,275.94827 z"
     style="fill:#ffccb2;stroke-width:1;stroke-linejoin:miter;marker-start:none;marker-end:none;stroke-miterlimit:79.84031677" />
  <path
     d="M 80.790979,458.79575 C 78.823479,461.25575 76.57723,463.67825 74.23348,465.4845 C 84.037229,464.71825 94.277228,466.25575 104.43348,471.68575 C 104.88723,471.9295 105.06098,472.49575 104.81598,472.95075 C 104.57223,473.4095 104.00348,473.58075 103.54973,473.33575 C 72.93473,456.9695 41.108482,477.237 24.013484,488.12575 L 23.242234,488.6145 C 16.693484,492.7795 1.3597356,502.54075 1.8847356,507.18325 C 2.0022356,508.2145 3.0272355,509.07825 4.9259853,509.752 C 12.963485,512.60325 66.98723,524.8895 112.77348,510.6795 C 122.73348,507.5895 131.91348,502.43325 140.16847,496.29075 C 133.74473,487.027 107.05973,459.112 80.790979,458.79575 z"
     style="fill:#ff173d;stroke-width:1;stroke-linejoin:miter;marker-start:none;marker-end:none;stroke-miterlimit:79.84031677" />
  <path
     d="M 156.99222,409.0295 C 156.62097,410.64575 155.99597,412.19325 155.09722,413.6345 C 150.90347,420.34325 139.32597,438.8445 118.47098,448.75075 C 133.34473,451.847 151.88972,466.197 158.39347,479.92825 C 174.81847,462.54575 184.83847,444.47325 186.22222,441.91075 C 185.13097,437.877 184.32597,433.34575 183.85222,429.332 C 181.63972,423.917 174.67472,411.5195 156.99222,409.0295 z"
     style="fill:#ff173d;stroke-width:1;stroke-linejoin:miter;marker-start:none;marker-end:none;stroke-miterlimit:79.84031677" />
  <path
     d="M 213.28597,406.70575 C 213.26097,406.14326 213.19847,405.42576 213.11972,404.56201 C 212.55347,398.43326 211.31347,384.93826 221.26972,371.97826 C 220.36097,372.52576 219.46222,373.06326 218.53972,373.62451 C 207.67597,380.22576 185.23847,400.78201 185.23847,422.19825 C 185.23847,427.00825 186.36722,435.44575 188.21722,442.067 C 189.72597,433.12075 198.56847,420.782 213.28597,406.70575 z"
     style="fill:#ff173d;stroke-width:1;stroke-linejoin:miter;marker-start:none;marker-end:none;stroke-miterlimit:79.84031677" />
  <path
     d="M 245.17597,382.63826 C 211.06847,407.902 189.87222,431.67575 189.85847,444.68325 C 189.85597,446.16825 190.12847,447.477 190.67347,448.6345 C 190.93222,449.117 191.19847,449.557 191.46972,449.93825 C 191.48097,449.952 191.49347,449.967 191.50347,449.982 C 191.61347,450.13325 191.72347,450.2745 191.83597,450.407 C 192.25597,450.8945 192.74097,451.3445 193.30097,451.7595 C 206.28847,461.422 254.11097,448.2195 289.33596,419.59575 C 322.42096,392.71576 347.75346,350.80201 348.24221,341.33451 C 348.29096,340.39701 348.08096,340.11326 348.01721,340.04951 C 341.98721,334.01951 288.32971,350.67451 245.17597,382.63826 z"
     style="fill:#ff173d;stroke-width:1;stroke-linejoin:miter;marker-start:none;marker-end:none;stroke-miterlimit:79.84031677" />
  <path
     d="M 235.29722,387.80826 C 238.10972,385.60201 241.02972,383.37576 244.05722,381.13451 C 281.39096,353.47826 327.74346,336.17326 344.12096,337.07701 C 334.30596,331.24576 309.12096,325.84076 250.92222,355.46076 C 237.77347,362.62326 234.45722,381.68576 235.29722,387.80826 z"
     style="fill:#ff173d;stroke-width:1;stroke-linejoin:miter;marker-start:none;marker-end:none;stroke-miterlimit:79.84031677" />
  <path
     d="M 133.08598,158.23327 C 136.48347,150.26453 133.36848,137.42703 128.77348,128.24078 C 125.02848,120.74578 115.22973,112.42703 105.32223,111.47578 C 99.267228,110.89703 94.105978,113.05953 89.950979,117.90078 C 94.037228,118.11078 104.17223,122.95953 103.72723,123.66703 C 103.55473,123.84828 92.973478,119.70703 89.098479,119.28328 C 89.005979,119.25828 88.937229,119.20953 88.880979,119.15078 C 88.877229,119.15578 88.867229,119.16078 88.857229,119.16578 C 88.788479,119.21453 88.713479,119.24828 88.632229,119.27828 C 88.603479,119.28828 88.575979,119.29703 88.544729,119.30703 C 88.449729,119.33203 88.354729,119.33703 88.252229,119.32703 C 88.237229,119.32703 88.222229,119.33203 88.207229,119.33203 C 82.264729,118.55828 77.16223,119.66578 73.44723,122.53453 C 70.68848,124.66828 68.90598,127.63703 68.22223,131.16328 C 68.44223,131.16328 68.66223,131.15828 68.88598,131.15828 C 79.877229,131.15828 91.210978,136.02578 99.979728,144.51703 C 108.88098,153.14078 113.98848,164.48327 113.98848,175.63577 L 113.99348,180.47702 C 123.02723,178.97077 124.41348,171.00702 124.39848,166.26077 C 124.39848,166.25077 124.40348,166.24327 124.40348,166.23327 C 124.40848,166.14077 124.42848,166.05577 124.45723,165.96702 C 124.46723,165.93827 124.47223,165.90577 124.48723,165.87702 C 124.52098,165.80077 124.56973,165.73827 124.62098,165.67452 C 124.64098,165.64952 124.65348,165.62077 124.67223,165.59577 C 124.67223,165.59202 124.66223,165.58702 124.66223,165.57952 C 124.89723,162.77952 121.53098,152.45203 121.70848,152.24703 C 122.30473,151.84203 126.47723,160.87952 126.05473,165.00077 C 129.34598,163.72077 131.71348,161.45577 133.08598,158.23327 z"
     style="fill:#ffffff;stroke-width:1;stroke-linejoin:miter;marker-start:none;marker-end:none;stroke-miterlimit:79.84031677" />
  <path
     d="M 72.98348,220.40077 C 78.173479,218.09577 83.050979,210.28577 83.050979,206.88577 C 83.050979,206.06077 83.198479,205.28827 83.339729,204.54452 C 83.867229,201.79202 84.448479,198.66952 76.89848,191.06077 C 76.28848,191.17952 75.68348,191.32827 75.07348,191.54327 C 66.93348,193.10577 59.648481,200.12702 59.218481,199.61452 C 59.067231,199.80327 61.913481,193.66952 74.50848,189.98077 C 75.26098,189.82702 75.97598,189.71952 76.67473,189.62952 C 76.69348,189.60452 76.70348,189.57577 76.72348,189.55327 C 77.06973,189.20702 77.61723,189.19952 77.988479,189.51202 C 88.798479,188.69452 92.645978,195.43077 92.197228,194.92702 C 92.130978,195.09327 86.078479,190.62827 79.257229,190.80577 C 86.405979,198.38202 85.737229,201.98327 85.182229,204.89577 C 85.053479,205.58702 84.925979,206.23577 84.925979,206.88577 C 84.925979,209.04827 83.388479,212.59577 81.010979,215.80577 C 93.729728,219.20452 100.80098,212.18577 107.62723,205.35952 L 107.69973,205.28327 C 112.15848,200.82827 112.15348,198.94577 112.11848,180.94827 L 112.11348,175.63577 C 112.11348,153.73578 91.105978,133.03328 68.88598,133.03328 C 44.562232,133.03328 24.823484,142.04453 24.823484,147.92578 C 24.823484,154.92203 17.807234,166.57827 14.965985,169.42452 C 14.247235,170.14202 14.095985,171.36327 14.095985,172.26077 C 14.095985,174.86327 15.350984,178.36452 16.977234,180.57452 C 17.533484,179.69077 18.190984,178.85827 18.949734,178.09577 C 24.487234,172.56452 24.305984,166.69702 24.300984,166.61702 C 24.277234,166.10202 24.677234,165.65952 25.192234,165.63577 C 25.707234,165.61077 26.147234,166.00702 26.175984,166.52452 C 26.180984,166.64077 26.462234,173.23827 20.278484,179.42202 C 17.565984,182.13452 16.313484,185.86202 16.840984,189.64952 C 17.353484,193.32577 19.464734,196.56077 22.845984,198.90952 C 22.858484,197.79577 23.045984,196.69952 23.417234,195.64077 C 25.905984,188.48452 29.667233,180.62077 29.707233,180.54202 C 29.930983,180.07327 30.492233,179.87827 30.957233,180.10327 C 31.425983,180.32577 31.620983,180.88452 31.395983,181.35327 C 31.362233,181.43077 27.640984,189.20202 25.187234,196.25577 C 24.374734,198.58702 24.633484,201.16077 25.932234,203.69702 C 27.812234,207.37077 31.703483,210.61077 36.347233,212.46702 C 35.595983,210.46452 35.350983,208.40827 35.895983,206.33327 C 37.407233,200.58452 37.425983,191.97077 37.425983,191.88577 C 37.425983,191.36827 37.845983,190.94827 38.363483,190.94827 C 38.880983,190.94827 39.300983,191.36827 39.300983,191.88577 C 39.300983,192.24702 39.282233,200.82577 37.709733,206.80952 C 36.329733,212.04702 41.170982,217.42702 47.153482,223.40827 C 52.597232,228.85327 68.30098,222.48327 72.98348,220.40077 z"
     style="fill:#ffffff;stroke-width:1;stroke-linejoin:miter;marker-start:none;marker-end:none;stroke-miterlimit:79.84031677" />
  <path
     d="M 85.829729,329.24951 C 90.292229,329.49326 93.685978,331.92951 95.727228,336.26576 C 98.403478,335.23576 100.94723,334.91826 103.25598,335.31326 C 104.28723,333.03826 106.17598,328.41451 106.17598,326.26076 C 106.17598,324.95201 106.09098,313.24826 103.11973,305.99201 C 101.83598,302.84826 99.907228,301.76451 97.392228,301.45576 C 97.367228,301.45576 97.350978,301.46576 97.328478,301.46576 C 97.294728,301.46576 97.264728,301.44701 97.230978,301.44201 C 95.780978,301.28576 94.144728,301.37326 92.323478,301.47076 C 91.400978,301.52451 90.448478,301.56826 89.487229,301.58326 C 88.324729,306.20201 85.209729,310.85576 79.510979,314.74701 C 86.552229,322.83826 91.108478,325.95826 90.634728,326.49076 C 90.424728,326.74951 82.694729,321.41201 77.83598,315.35826 C 77.67098,315.28451 77.51973,315.18201 77.41723,315.02076 C 77.36723,314.94701 77.34848,314.86451 77.32348,314.78576 C 72.18223,309.00951 70.78598,299.93326 71.91848,300.01076 C 72.73848,299.86451 71.82098,304.95201 78.319729,313.29201 C 89.472229,305.78201 89.635979,296.00701 86.288479,289.83076 C 82.597229,283.01451 74.04223,272.19827 66.80098,272.19827 C 59.433481,272.19827 49.648482,278.71202 47.050982,285.35326 C 44.369732,292.19826 46.762232,304.70326 46.787232,304.83076 C 46.884732,305.33826 46.552232,305.83076 46.044732,305.92951 C 45.537232,306.03201 45.043482,305.69951 44.945982,305.19201 C 44.838482,304.65451 42.425982,292.02701 45.302232,284.66951 C 45.599732,283.90701 45.995982,283.15576 46.444732,282.41326 C 36.747233,280.86077 28.378483,287.94576 24.894734,300.87951 C 24.755984,301.39326 24.682234,301.93451 24.658484,302.49576 C 24.658484,302.50576 24.664734,302.51576 24.664734,302.52576 C 24.664734,302.53576 24.658484,302.54576 24.658484,302.55951 C 24.384734,310.21076 33.969733,321.46576 34.077233,321.58826 C 34.413483,321.97826 34.369733,322.56951 33.974733,322.90701 C 33.583483,323.24826 32.992233,323.19951 32.655983,322.80826 C 32.225983,322.31076 23.275984,311.80326 22.807234,303.49701 C 19.777234,303.66326 17.479734,304.63951 15.980984,306.42701 C 13.593485,309.28326 13.022235,314.32201 14.287235,321.40701 C 15.783484,329.78576 24.902234,339.90326 24.994734,340.00576 C 25.343484,340.38701 25.317234,340.98326 24.930984,341.32951 C 24.550984,341.67576 23.954734,341.65201 23.608484,341.26576 C 23.329734,340.95826 18.564734,335.66576 15.284735,329.41576 C 12.158485,330.80201 10.209735,332.65701 9.367235,335.08451 C 7.4559851,340.60701 11.854735,348.15576 14.487235,352.66201 C 18.759734,359.98701 35.453483,374.54701 45.404732,377.23326 C 45.350982,370.30451 46.982232,362.99451 50.350982,356.75451 C 57.807231,342.94076 73.84223,328.58951 85.829729,329.24951 z"
     style="fill:#ffffff;stroke-width:1;stroke-linejoin:miter;marker-start:none;marker-end:none;stroke-miterlimit:79.84031677" />
  <path
     d="M 107.86098,381.21701 C 104.98473,381.18826 101.70848,381.14326 98.447228,381.09451 C 94.970978,387.34951 87.489729,391.05576 82.924729,388.73701 C 81.444729,387.98451 78.979729,385.81201 79.789729,379.87951 C 79.789729,379.86951 79.787229,379.86451 79.787229,379.85451 C 79.789729,379.83576 79.799729,379.82076 79.799729,379.80076 C 80.184729,377.06201 81.267229,373.53201 83.457229,368.98076 C 92.465978,350.25076 99.809728,351.64701 101.84723,352.52076 C 104.17473,353.51701 105.46848,356.08076 105.20973,358.69201 C 108.05098,358.31701 110.98098,357.81326 113.92598,357.14451 C 112.99098,347.44201 110.29223,340.94326 106.09598,338.34576 C 103.35848,336.65201 100.02848,336.56326 96.205978,338.08201 C 96.113478,338.11701 96.019728,338.12576 95.924728,338.13076 C 95.839728,338.21951 95.732228,338.29201 95.612228,338.34076 C 95.355978,338.44326 95.082228,338.41951 94.850978,338.30701 C 90.844728,340.19201 82.689729,348.52201 82.514729,348.50701 C 81.847229,348.16576 89.013479,339.08326 94.052228,337.09576 C 92.304728,333.35076 89.515979,331.32951 85.727229,331.11951 C 75.68348,330.56701 59.925981,342.96451 52.002232,357.64326 C 45.512232,369.66451 45.807232,386.45576 52.658482,395.06951 C 55.073481,398.10701 59.305981,401.31451 65.93723,399.94201 C 62.988481,396.29576 59.907231,384.19576 60.760981,384.09326 C 60.990981,384.10326 64.917231,396.25576 67.63098,399.71826 C 67.80223,399.78201 67.95848,399.88451 68.06848,400.03576 C 68.07098,400.04076 68.07598,400.04076 68.07598,400.04576 C 71.09848,404.25951 74.72098,406.35326 78.842229,406.27076 C 86.938479,406.10451 96.957228,397.43826 107.86098,381.21701 z"
     style="fill:#ffffff;stroke-width:1;stroke-linejoin:miter;marker-start:none;marker-end:none;stroke-miterlimit:79.84031677" />
  <path
     d="M 88.739729,448.067 C 93.647228,451.80325 100.36598,452.862 107.17723,450.98325 C 134.21347,443.512 148.73472,420.2745 153.50847,412.63825 C 156.19347,408.34075 156.17597,402.85326 153.46097,397.95076 C 151.02722,393.56076 147.04097,390.75826 142.88972,390.39701 C 142.73847,394.47826 142.07472,398.25326 141.62097,400.78201 C 141.38097,402.11576 141.17597,403.26826 141.17597,403.76076 C 141.17597,404.27826 140.75597,404.69826 140.23847,404.69826 C 139.72097,404.69826 139.30097,404.27826 139.30097,403.76076 C 139.30097,403.10201 139.50222,401.98826 139.77472,400.45576 C 140.70722,395.24076 142.59722,384.57201 138.58847,377.41326 C 133.58348,379.02451 128.33973,380.00576 123.82348,380.57701 C 124.56973,394.31701 106.69598,406.25576 98.834728,410.822 C 91.595978,415.02575 86.684729,417.22325 84.564729,415.21075 C 83.158479,413.87325 83.475979,411.1295 85.590979,406.49076 C 83.273479,407.53575 81.034729,408.102 78.880979,408.14575 C 77.23598,408.1795 75.67348,407.902 74.18473,407.3545 C 70.69848,415.2845 69.80223,421.212 71.57723,424.947 C 72.68973,427.29575 74.82348,428.8145 78.290979,429.72825 C 84.310979,431.3145 91.567228,435.32325 92.778478,436.5345 C 93.144728,436.90075 93.144728,437.49575 92.778478,437.862 C 92.412228,438.22825 91.815978,438.22825 91.449728,437.862 C 90.707228,437.11575 86.162229,434.48825 81.327229,432.677 C 81.647229,439.19575 84.230979,444.6345 88.739729,448.067 z"
     style="fill:#ffffff;stroke-width:1;stroke-linejoin:miter;marker-start:none;marker-end:none;stroke-miterlimit:79.84031677" />
  <path
     d="M 115.34098,450.14825 C 112.90473,451.15825 110.35098,452.047 107.67598,452.7895 C 100.29723,454.83075 92.983478,453.64825 87.602229,449.557 C 87.494729,449.47325 87.402229,449.37575 87.297229,449.29325 C 86.420979,450.787 84.592229,453.78075 82.207229,456.9695 C 108.66723,458.22825 135.08222,485.74825 141.66472,495.162 C 147.22597,490.8845 152.35347,486.18325 156.99722,481.39325 C 150.63222,467.042 130.30723,451.7545 115.34098,450.14825 z"
     style="fill:#ffffff;stroke-width:1;stroke-linejoin:miter;marker-start:none;marker-end:none;stroke-miterlimit:79.84031677" />
  <path
     d="M 214.98472,404.38576 C 215.00972,404.62076 215.02847,404.83576 215.04347,405.04576 C 220.51222,399.92326 226.74222,394.58576 233.65222,389.10326 C 232.54847,384.43951 234.25722,369.54701 242.74847,359.74201 C 237.56347,362.52576 232.13347,365.57201 226.45472,368.90201 C 212.96347,382.46201 214.32597,397.26701 214.98472,404.38576 z"
     style="fill:#ffffff;stroke-width:1;stroke-linejoin:miter;marker-start:none;marker-end:none;stroke-miterlimit:79.84031677" />
  <path
     d="M 214.88222,349.03451 C 202.32347,352.77951 188.81847,364.85451 184.77722,375.95326 C 182.91972,381.05576 183.03722,385.63576 185.09222,389.60076 C 187.66097,385.03076 191.41597,380.34326 196.52347,376.15826 C 196.92347,375.83076 197.51472,375.88951 197.84097,376.29076 C 198.16847,376.69076 198.10972,377.28201 197.70972,377.60826 C 186.46972,386.82701 182.03347,398.44326 182.66597,405.33326 C 182.83472,407.1595 183.43222,409.49825 185.20972,411.007 C 190.87847,393.18951 208.30472,377.64826 217.56847,372.02326 C 219.03347,371.13201 220.48347,370.26326 221.92722,369.40826 C 221.98722,369.37076 222.04972,369.33451 222.10847,369.29826 C 223.13847,368.68826 224.15847,368.08701 225.17847,367.49076 C 225.25347,367.44576 225.32972,367.40076 225.40347,367.35701 C 225.44097,367.33451 225.47972,367.30951 225.51722,367.28576 C 225.52222,367.28576 225.52222,367.28576 225.52722,367.28201 C 230.60472,364.30826 235.57097,361.49576 240.40972,358.87326 C 240.31722,354.02451 239.00847,350.70451 236.40097,348.76076 C 232.44097,345.80701 225.39972,345.89451 214.88222,349.03451 z"
     style="fill:#ffffff;stroke-width:1;stroke-linejoin:miter;marker-start:none;marker-end:none;stroke-miterlimit:79.84031677" />
  <path
     d="M 305.30221,265.19702 C 300.05346,266.50077 296.15721,268.99077 296.59596,270.76327 C 297.03596,272.54077 301.64471,272.92077 306.89471,271.62202 C 312.14346,270.31827 316.03971,267.82327 315.59971,266.05077 C 315.16096,264.27827 310.54596,263.89827 305.30221,265.19702 z"
     style="fill:#ffffff;stroke-width:1;stroke-linejoin:miter;marker-start:none;marker-end:none;stroke-miterlimit:79.84031677" />
  <path
     d="M 336.31346,187.21702 C 334.32596,186.74827 328.12971,194.00452 317.07971,215.55452 C 319.07221,226.30202 311.93096,246.78327 305.99346,254.06827 C 304.51846,255.87452 302.67596,257.69577 301.28596,257.77702 C 298.92096,257.91577 298.66721,255.11327 298.78096,251.73827 C 298.90846,248.01327 299.85346,243.32327 300.29221,240.13202 C 299.90221,240.13702 297.43346,241.01327 295.74221,240.47952 C 292.01346,239.30452 289.58971,234.03327 288.72096,223.98952 C 288.21721,227.09577 287.47096,230.43077 286.46971,233.86327 C 282.28471,248.16452 275.32221,258.71702 270.91721,257.42452 C 266.50846,256.13827 266.32346,243.49702 270.50721,229.19452 C 274.68721,214.89077 281.64971,204.33952 286.05971,205.63077 C 286.93346,205.88452 287.63096,206.60202 288.17346,207.67202 C 286.43471,171.14577 269.87221,151.29453 255.57097,145.30828 C 247.07472,141.75078 233.53472,141.58703 222.44597,149.23703 C 213.89597,155.13703 203.89097,167.76452 204.78972,194.41202 C 206.39097,242.01702 218.38347,252.66702 235.16097,262.51952 C 242.70472,266.95452 253.99847,265.89452 264.92096,264.86952 C 274.05721,264.01202 282.77846,263.20452 288.78346,265.71952 C 292.18721,263.58952 296.70846,261.89077 301.80096,261.03327 C 306.06471,260.31827 310.13596,260.29327 313.64221,260.82577 C 329.47221,244.97577 337.49471,221.94202 337.49471,192.36202 C 337.49471,187.63202 336.42971,187.24452 336.31346,187.21702 z"
     style="fill:#ffffff;stroke-width:1;stroke-linejoin:miter;marker-start:none;marker-end:none;stroke-miterlimit:79.84031677" />
  <path
     d="M 305.06346,241.15327 C 306.38346,241.61452 308.34471,238.06702 309.71596,234.40702 C 310.76346,231.61702 310.90846,228.20577 310.88096,226.61202 C 309.24096,229.22452 307.38471,232.45952 305.52971,234.51952 C 304.91221,236.72452 303.74221,240.69452 305.06346,241.15327 z"
     style="fill:#ffffff;stroke:none;stroke-width:1;stroke-linejoin:miter;marker-start:none;marker-end:none;stroke-miterlimit:79.84031677" />
  <path
     d="M 277.90471,219.49827 C 275.58096,225.64077 275.10471,230.04202 276.47221,230.56202 C 277.84846,231.07952 280.54846,227.51577 282.87346,221.37702 C 285.19221,215.23452 285.53971,211.37702 284.16721,210.85702 C 282.79471,210.34202 280.22471,213.35452 277.90471,219.49827 z"
     style="fill:#ffffff;stroke:none;stroke-width:1;stroke-linejoin:miter;marker-start:none;marker-end:none;stroke-miterlimit:79.84031677" />
  <path
     d="M 195.59597,117.19828 C 196.11347,117.17328 196.51347,116.73703 196.48847,116.21828 C 194.87722,80.439531 207.01597,60.962033 214.44347,55.093283 C 216.86472,53.179533 218.62222,52.754533 219.46222,52.993283 C 225.01472,54.583283 252.44097,73.772032 264.72096,97.11453 C 264.96596,97.57203 265.53221,97.74703 265.99096,97.50578 C 266.44971,97.26578 266.62596,96.69953 266.38096,96.24078 C 253.89097,72.508282 226.41597,53.033283 219.97472,51.192033 C 218.26097,50.703283 215.88347,51.565783 213.28097,53.620783 C 203.71097,61.184533 193.07597,82.139531 194.61847,116.30453 C 194.63847,116.82203 195.07722,117.22203 195.59597,117.19828 z"
     style="fill:#000000;stroke:none;stroke-width:1;stroke-linejoin:miter;marker-start:none;marker-end:none;stroke-miterlimit:79.84031677" />
  <path
     d="M 213.71597,108.58953 C 220.10222,102.20328 235.91722,97.19828 249.71597,97.19828 C 250.03847,97.19828 250.33597,97.03453 250.50722,96.76328 C 250.68347,96.49203 250.70222,96.15328 250.56597,95.86203 C 246.91847,88.10828 236.45472,72.107032 222.96347,67.049532 C 222.51972,66.880782 222.01597,67.075782 221.80097,67.503282 C 216.34722,78.287031 212.11347,98.08703 212.11347,107.92578 C 212.11347,108.30578 212.34347,108.64828 212.69472,108.79203 C 213.04597,108.93578 213.44722,108.85828 213.71597,108.58953 M 223.09597,69.145782 C 235.25347,74.170782 244.75597,88.63828 248.22222,95.35703 C 235.42472,95.67953 221.25472,100.04453 214.06222,105.79703 C 214.55472,96.71203 217.95847,79.790781 223.09597,69.145782 z"
     style="fill:#000000;stroke:none;stroke-width:1;stroke-linejoin:miter;marker-start:none;marker-end:none;stroke-miterlimit:79.84031677" />
  <path
     d="M 211.70847,137.83203 C 207.71472,143.93578 207.51472,147.51953 207.52347,147.47578 C 208.01722,147.71078 209.61847,141.67078 215.27847,135.46203 C 220.66347,128.97578 231.70347,124.90328 241.56722,126.17703 C 262.44596,127.35703 279.88721,147.54703 279.80471,147.01953 C 279.84846,147.00953 277.87096,143.67703 272.17221,138.58703 C 266.56221,133.73078 256.85472,126.03578 241.21597,124.48828 C 225.36097,123.22328 215.24847,131.85828 211.70847,137.83203 z"
     style="fill:#000000;stroke:none;stroke-width:1;stroke-linejoin:miter;marker-start:none;marker-end:none;stroke-miterlimit:79.84031677" />
  <path
     d="M 356.03471,180.95952 C 367.41721,169.32702 377.11346,140.40828 377.11346,134.38578 C 377.11346,128.94578 361.65471,126.17203 331.17096,126.13328 C 315.04346,92.17328 282.80721,59.547033 238.52972,33.267035 C 182.22097,-0.16046246 146.06847,-0.057962468 124.47223,0.0057875268 L 121.80098,0.010787526 C 121.42348,0.010787526 121.08098,0.23953751 120.93723,0.58953748 C 120.79098,0.93828745 120.87098,1.3432874 121.13723,1.6095374 C 141.75722,22.227036 157.99722,52.608283 161.01972,76.015781 C 99.325978,62.698283 46.523482,91.14828 30.512233,107.15828 C 30.265983,107.40828 30.175983,107.77453 30.283483,108.10578 C 30.389733,108.44078 30.673483,108.68703 31.019733,108.74578 C 48.793482,111.75328 64.730981,123.70203 67.95848,126.24078 C 67.17223,127.75453 66.62098,129.40953 66.31848,131.18953 C 42.074732,131.77828 22.948484,140.58703 22.948484,147.92578 C 22.948484,154.19953 16.415984,165.32077 13.637235,168.09827 C 12.699735,169.03827 12.220985,170.43952 12.220985,172.26077 C 12.220985,175.54452 13.895985,179.90327 16.029734,182.37327 C 15.004735,184.70327 14.618485,187.29077 14.984735,189.90827 C 15.634734,194.57577 18.514734,198.58452 23.088484,201.26827 C 23.314734,202.36202 23.705984,203.46202 24.262234,204.55077 C 26.588484,209.09202 31.635983,213.00327 37.477233,214.84202 C 39.515983,218.41827 42.875982,221.78327 45.824732,224.73452 C 46.620982,225.52827 47.573482,226.10952 48.637232,226.53077 C 40.639732,239.57577 40.253483,257.34952 40.238483,258.11827 C 40.233483,258.45577 40.409732,258.76827 40.698482,258.94077 C 40.985982,259.11202 41.344732,259.11702 41.637232,258.95077 C 83.710979,235.21827 116.93348,238.38952 129.44348,239.58077 C 130.73223,239.70327 131.82098,239.80577 132.73348,239.86327 C 132.24598,241.22577 131.81598,242.45202 131.44973,243.56077 C 127.04598,245.26452 122.84098,247.61077 118.99348,250.60077 C 109.51098,257.96952 97.980978,272.42827 96.493478,299.52326 C 95.097228,299.44951 93.652228,299.52326 92.218478,299.60076 C 91.444728,299.64451 90.650978,299.67951 89.853479,299.69826 C 90.394728,295.83076 89.640979,292.08076 87.939729,288.93701 C 83.885979,281.45577 74.91223,270.32327 66.80098,270.32327 C 60.127231,270.32327 51.928482,274.98202 47.582232,280.71452 C 36.513483,278.43327 26.938484,286.07076 23.085984,300.39201 C 22.978484,300.79201 22.909734,301.20201 22.860984,301.62201 C 19.218484,301.78826 16.415984,302.98951 14.545985,305.22576 C 11.742235,308.57076 11.054735,313.97076 12.440985,321.73951 C 12.794735,323.71701 13.534735,325.75326 14.457235,327.73576 C 10.909735,329.33201 8.593485,331.58826 7.5972351,334.46951 C 5.3997353,340.80701 9.8922349,348.51201 12.865985,353.60951 C 16.997234,360.68451 34.394733,376.59826 45.470982,379.18076 C 45.829732,385.76826 47.729732,391.88576 51.190982,396.23701 C 55.160981,401.22701 60.737231,403.12576 66.94348,401.63701 C 68.61723,403.84451 70.45848,405.50451 72.46598,406.58826 C 68.68598,415.157 67.83473,421.442 69.88223,425.75325 C 71.23473,428.5995 73.82723,430.4945 77.81223,431.5445 C 78.344729,431.68075 78.880979,431.847 79.423479,432.01825 C 79.574729,438.54075 81.815979,444.132 85.854729,448.03825 C 84.164729,450.93325 76.79223,463.02325 69.83848,465.97825 C 50.912232,468.78075 33.979733,479.552 23.004734,486.5445 L 22.235984,487.032 C 8.508485,495.76825 -0.52276423,502.5745 0.023485726,507.39325 C 0.22973571,509.19575 1.6647356,510.582 4.3009854,511.5195 C 12.425985,514.40075 67.05973,526.827 113.32973,512.467 C 123.72098,509.2445 133.26598,503.8245 141.81347,497.3895 C 141.86472,497.3695 141.92347,497.3595 141.97222,497.32575 C 142.07222,497.262 142.15347,497.1795 142.21847,497.08575 C 148.15847,492.5745 153.61347,487.5745 158.52222,482.487 C 158.74972,482.3845 158.91597,482.20325 159.00347,481.98825 C 173.97972,466.3395 183.82347,449.977 186.96722,444.4295 C 187.56597,446.29075 188.22972,447.9745 188.95722,449.367 C 189.25222,450.00075 189.61847,450.592 190.04847,451.15325 C 190.06847,451.18325 190.09222,451.212 190.11222,451.242 C 190.21972,451.38325 190.32722,451.5145 190.43472,451.647 C 190.59722,451.842 190.76347,452.02325 190.93222,452.18825 C 190.94722,452.20325 190.96597,452.20325 190.98097,452.21825 C 191.35222,452.5845 191.74222,452.93575 192.18222,453.26325 C 198.96972,458.312 214.42347,457.74075 233.52972,451.7245 C 253.48597,445.44575 274.25721,434.2645 290.51721,421.05075 C 322.21096,395.29951 349.54596,352.43826 350.11221,341.43201 C 350.17596,340.21076 349.91721,339.29826 349.34096,338.72201 C 345.39971,334.78201 335.62971,328.56076 314.42346,331.14826 C 296.97721,333.28201 275.46346,340.86076 250.24847,353.70201 C 250.22972,353.71201 250.20972,353.71201 250.18972,353.72201 C 250.13097,353.75076 250.07347,353.79076 250.01472,353.82451 C 247.46597,355.12326 244.87222,356.48076 242.24597,357.88701 C 241.98722,352.93076 240.44347,349.43451 237.51972,347.25701 C 237.28472,347.08076 237.03597,346.91576 236.78222,346.75951 C 237.84097,342.82826 240.90347,330.28451 237.77847,327.15951 C 231.55722,320.93826 215.43972,319.23951 198.42722,322.28576 C 199.57972,320.61701 200.82972,318.37076 202.02097,315.78201 C 204.96597,315.21076 222.68972,312.29576 236.26972,321.71951 C 236.54222,321.91076 236.89847,321.93951 237.20222,321.79826 C 237.50472,321.65201 237.70972,321.35826 237.73847,321.02701 C 237.78722,320.43576 238.83222,307.19826 235.23847,298.18951 C 262.45096,300.38701 289.42846,294.74201 296.36221,282.98951 C 296.41596,282.89701 296.43971,282.79951 296.45971,282.70201 C 299.25221,282.87201 302.29471,282.72576 305.44346,282.19326 C 317.15346,280.22577 325.83971,273.82952 324.84346,267.91077 C 324.29221,264.61327 320.83471,262.16077 315.85846,260.97702 C 323.64221,252.91077 329.52096,243.11327 333.45221,231.64577 C 344.64846,216.04827 354.00346,195.98702 356.03471,180.95952 M 375.23846,134.38578 C 375.23846,139.76328 366.51846,165.70327 356.34721,177.82327 C 356.70846,172.38327 355.96096,167.76952 353.77346,164.52202 C 351.27846,160.82327 347.20221,159.14327 341.63596,159.48577 C 340.03346,148.97328 336.78721,138.43578 332.02596,128.01328 C 363.87221,128.11578 375.23846,131.48703 375.23846,134.38578 M 33.147233,107.23703 C 50.443482,91.17203 101.99223,64.629532 161.90847,78.110781 C 162.20472,78.179531 162.51472,78.095781 162.73847,77.895781 C 162.96597,77.693281 163.08097,77.395781 163.04597,77.095781 C 160.48847,53.728283 144.54597,23.110786 124.02848,1.8807874 L 124.47723,1.8807874 C 145.88347,1.8170374 181.70847,1.7170374 237.57347,34.878285 C 281.71346,61.079533 313.77346,93.57953 329.66721,127.34453 C 329.68721,127.41578 329.71596,127.47578 329.75596,127.53703 C 334.74096,138.17703 338.11971,148.94078 339.76971,159.67077 C 338.62221,159.82452 337.42096,160.04452 336.16221,160.35202 C 335.65846,160.47452 335.35096,160.98202 335.47346,161.48452 C 335.59596,161.98827 336.10346,162.29577 336.60596,162.17327 C 344.19846,160.32327 349.44846,161.46577 352.21596,165.57202 C 359.31096,176.08952 349.49721,203.93077 335.26846,225.66952 C 338.00721,215.61077 339.40346,204.41702 339.40346,192.09577 C 339.40346,189.36827 339.13596,185.67952 336.77721,185.12327 C 335.29221,184.77327 330.78096,183.70702 313.46596,218.34327 C 306.81096,231.64827 300.79346,239.53702 296.80346,238.59452 C 294.57721,238.06952 290.23846,233.96327 290.23846,213.76077 C 290.23846,179.58827 276.92846,151.93453 256.33222,143.31078 C 247.36347,139.55578 233.08597,139.37328 221.41597,147.42703 C 212.47972,153.59203 202.02597,166.71452 202.94847,194.20952 C 203.57347,212.79827 205.77597,225.85952 209.22347,235.48827 C 199.61847,224.36827 189.97472,218.59202 181.09597,218.71452 C 173.57347,218.81952 166.82597,222.99577 161.03972,231.13327 C 158.87222,234.18327 157.53847,237.54202 157.05097,241.10952 C 156.83097,241.06952 156.61097,241.03077 156.38847,240.99202 C 163.65972,208.92827 167.11097,186.93702 163.35847,169.84952 C 159.86347,153.93078 150.55597,141.75828 129.03723,124.96828 C 124.34973,117.74453 114.98473,110.51828 105.49723,109.60953 C 98.598478,108.95078 92.533478,111.65328 87.919729,117.42203 C 81.698479,116.71953 76.30348,117.95953 72.29973,121.05328 C 70.97098,122.08078 69.84848,123.27703 68.92598,124.61703 C 65.287231,121.78328 50.245982,110.70828 33.147233,107.23703 M 309.71596,234.40702 C 308.34471,238.06702 306.38346,241.61452 305.06346,241.15327 C 303.74221,240.69452 304.91221,236.72452 305.52971,234.51952 C 307.38471,232.45952 309.24096,229.22452 310.88096,226.61202 C 310.90846,228.20577 310.76346,231.61702 309.71596,234.40702 M 121.70848,152.24703 C 121.53098,152.45203 124.89723,162.77952 124.66223,165.57952 C 124.66223,165.58702 124.67223,165.59202 124.67223,165.59577 C 124.65348,165.62077 124.64098,165.64952 124.62098,165.67452 C 124.56973,165.73827 124.52098,165.80077 124.48723,165.87702 C 124.47223,165.90577 124.46723,165.93827 124.45723,165.96702 C 124.42848,166.05577 124.40848,166.14077 124.40348,166.23327 C 124.40348,166.24327 124.39848,166.25077 124.39848,166.26077 C 124.41348,171.00702 123.02723,178.97077 113.99348,180.47702 L 113.98848,175.63577 C 113.98848,164.48327 108.88098,153.14078 99.979728,144.51703 C 91.210978,136.02578 79.877229,131.15828 68.88598,131.15828 C 68.66223,131.15828 68.44223,131.16328 68.22223,131.16328 C 68.90598,127.63703 70.68848,124.66828 73.44723,122.53453 C 77.16223,119.66578 82.264729,118.55828 88.207229,119.33203 C 88.222229,119.33203 88.237229,119.32703 88.252229,119.32703 C 88.354729,119.33703 88.449729,119.33203 88.544729,119.30703 C 88.575979,119.29703 88.603479,119.28828 88.632229,119.27828 C 88.713479,119.24828 88.788479,119.21453 88.857229,119.16578 C 88.867229,119.16078 88.877229,119.15578 88.880979,119.15078 C 88.937229,119.20953 89.005979,119.25828 89.098479,119.28328 C 92.973478,119.70703 103.55473,123.84828 103.72723,123.66703 C 104.17223,122.95953 94.037228,118.11078 89.950979,117.90078 C 94.105978,113.05953 99.267228,110.89703 105.32223,111.47578 C 115.22973,112.42703 125.02848,120.74578 128.77348,128.24078 C 133.36848,137.42703 136.48347,150.26453 133.08598,158.23327 C 131.71348,161.45577 129.34598,163.72077 126.05473,165.00077 C 126.47723,160.87952 122.30473,151.84203 121.70848,152.24703 M 134.81472,158.96577 C 138.44722,150.43953 135.33597,137.97203 131.28348,129.13578 C 166.39347,157.35452 169.53597,174.57077 154.53097,240.71827 C 147.50972,239.81952 140.40472,240.53827 133.70598,242.75202 C 134.08223,241.66577 134.50597,240.48202 134.97472,239.17077 C 141.11722,222.08577 152.50472,190.36702 133.70848,161.05327 C 134.11597,160.39577 134.49722,159.71202 134.81472,158.96577 M 47.153482,223.40827 C 41.170982,217.42702 36.329733,212.04702 37.709733,206.80952 C 39.282233,200.82577 39.300983,192.24702 39.300983,191.88577 C 39.300983,191.36827 38.880983,190.94827 38.363483,190.94827 C 37.845983,190.94827 37.425983,191.36827 37.425983,191.88577 C 37.425983,191.97077 37.407233,200.58452 35.895983,206.33327 C 35.350983,208.40827 35.595983,210.46452 36.347233,212.46702 C 31.703483,210.61077 27.812234,207.37077 25.932234,203.69702 C 24.633484,201.16077 24.374734,198.58702 25.187234,196.25577 C 27.640984,189.20202 31.362233,181.43077 31.395983,181.35327 C 31.620983,180.88452 31.425983,180.32577 30.957233,180.10327 C 30.492233,179.87827 29.930983,180.07327 29.707233,180.54202 C 29.667233,180.62077 25.905984,188.48452 23.417234,195.64077 C 23.045984,196.69952 22.858484,197.79577 22.845984,198.90952 C 19.464734,196.56077 17.353484,193.32577 16.840984,189.64952 C 16.313484,185.86202 17.565984,182.13452 20.278484,179.42202 C 26.462234,173.23827 26.180984,166.64077 26.175984,166.52452 C 26.147234,166.00702 25.707234,165.61077 25.192234,165.63577 C 24.677234,165.65952 24.277234,166.10202 24.300984,166.61702 C 24.305984,166.69702 24.487234,172.56452 18.949734,178.09577 C 18.190984,178.85827 17.533484,179.69077 16.977234,180.57452 C 15.350984,178.36452 14.095985,174.86327 14.095985,172.26077 C 14.095985,171.36327 14.247235,170.14202 14.965985,169.42452 C 17.807234,166.57827 24.823484,154.92203 24.823484,147.92578 C 24.823484,142.04453 44.562232,133.03328 68.88598,133.03328 C 91.105978,133.03328 112.11348,153.73578 112.11348,175.63577 L 112.11848,180.94827 C 112.15348,198.94577 112.15848,200.82827 107.69973,205.28327 L 107.62723,205.35952 C 100.80098,212.18577 93.729728,219.20452 81.010979,215.80577 C 83.388479,212.59577 84.925979,209.04827 84.925979,206.88577 C 84.925979,206.23577 85.053479,205.58702 85.182229,204.89577 C 85.737229,201.98327 86.405979,198.38202 79.257229,190.80577 C 86.078479,190.62827 92.130978,195.09327 92.197228,194.92702 C 92.645978,195.43077 88.798479,188.69452 77.988479,189.51202 C 77.61723,189.19952 77.06973,189.20702 76.72348,189.55327 C 76.70348,189.57577 76.69348,189.60452 76.67473,189.62952 C 75.97598,189.71952 75.26098,189.82702 74.50848,189.98077 C 61.913481,193.66952 59.067231,199.80327 59.218481,199.61452 C 59.648481,200.12702 66.93348,193.10577 75.07348,191.54327 C 75.68348,191.32827 76.28848,191.17952 76.89848,191.06077 C 84.448479,198.66952 83.867229,201.79202 83.339729,204.54452 C 83.198479,205.28827 83.050979,206.06077 83.050979,206.88577 C 83.050979,210.28577 78.173479,218.09577 72.98348,220.40077 C 68.30098,222.48327 52.597232,228.85327 47.153482,223.40827 M 129.61848,237.71577 C 117.09973,236.51952 84.077229,233.38952 42.192232,256.50952 C 42.489732,251.73702 43.920982,237.50077 50.512232,227.07077 C 57.802231,228.57952 68.66723,224.37077 73.74473,222.11452 C 75.92473,221.14827 77.978479,219.41452 79.715979,217.41327 C 93.998478,221.62452 101.93848,213.69702 108.94973,206.68577 L 109.02848,206.60952 C 113.89598,201.73827 114.02348,199.37577 113.99848,182.38327 C 121.63973,181.23577 126.06473,175.65952 126.25473,166.91952 C 128.81598,166.01327 130.91223,164.60327 132.52223,162.69577 C 150.07722,190.77702 139.41847,221.25577 133.39348,238.02327 C 132.44098,237.98202 131.17098,237.86202 129.61848,237.71577 M 120.14598,252.08077 C 123.96973,249.10702 128.16348,246.79202 132.55848,245.14202 C 132.58473,245.13202 132.61473,245.12452 132.64098,245.11077 C 140.37097,242.22702 148.72972,241.45077 156.87972,242.98452 C 156.72347,245.92077 157.10847,248.98202 158.07097,252.11702 C 160.10472,258.76577 164.53097,265.41077 170.70722,271.49577 C 170.64847,280.22577 168.63222,293.96076 164.85847,311.27576 C 159.38222,320.39201 152.88597,329.20076 142.95347,341.29076 C 142.75847,341.52451 142.55347,341.74951 142.35347,341.97826 C 128.94973,341.85201 117.69973,335.75826 107.98848,323.35076 C 107.81723,318.93201 107.18223,310.96826 104.85848,305.27951 C 103.37848,301.66576 101.03223,300.25076 98.355978,299.74201 C 99.779728,273.27702 110.95723,259.22202 120.14598,252.08077 M 184.05972,391.55826 C 181.46972,396.81701 180.45847,401.78826 180.80097,405.50451 C 181.11097,408.88825 182.44347,411.427 184.64847,412.92575 C 183.83222,415.97325 183.36347,419.07325 183.36347,422.19825 C 183.36347,422.82825 183.38347,423.527 183.41972,424.2645 C 179.71097,417.907 172.04097,409.27325 157.29472,407.18325 C 157.64097,403.83951 156.91597,400.31826 155.10222,397.04201 C 152.33847,392.05701 147.73347,388.84826 142.91972,388.48326 C 142.88972,384.47326 142.26472,380.31326 140.39472,376.79826 C 145.30222,375.04576 149.85597,372.65701 153.09097,369.42451 C 157.38472,365.12826 164.57972,357.54576 171.84097,348.17951 C 175.12222,347.52576 178.97472,346.54951 183.05597,345.50951 C 192.50972,343.10201 204.27222,340.10326 206.77222,342.22826 C 206.96222,342.38951 207.16722,342.65201 207.12847,343.21951 C 206.49847,347.07201 205.57597,350.18201 205.25347,351.19701 C 195.25347,356.84701 186.32097,366.23201 183.01472,375.31326 C 180.82972,381.31951 181.20597,386.92076 184.05972,391.55826 M 151.76472,368.09701 C 145.49722,374.36701 132.90473,377.62826 122.78723,378.82951 C 122.76348,378.83451 122.73848,378.82451 122.71473,378.82451 C 122.68973,378.82951 122.67598,378.83951 122.65098,378.84451 C 120.54223,379.09326 118.54473,379.24951 116.73848,379.32701 C 116.73348,379.32701 116.73348,379.32701 116.72848,379.32701 C 116.72848,379.32701 116.72348,379.32701 116.71848,379.32701 C 115.87348,379.36201 115.05848,379.38576 114.30098,379.38576 C 106.97473,379.38576 86.782229,379.03951 81.845979,378.95201 C 82.372229,376.35826 83.473479,373.26826 85.145979,369.79076 C 86.752229,366.45576 88.329729,363.75076 89.843479,361.56826 C 93.724728,361.55451 98.398478,361.36326 103.42223,360.79201 C 103.48848,360.84076 103.54973,360.89451 103.62723,360.92451 C 104.01348,361.06576 104.42348,360.93826 104.67223,360.64576 C 108.01723,360.22576 111.49848,359.63951 114.99473,358.81951 C 115.00473,358.81951 115.00973,358.82451 115.01973,358.82451 C 115.07348,358.81951 115.11723,358.79576 115.16598,358.78076 C 115.94723,358.59451 116.72848,358.39951 117.50723,358.18951 C 117.63098,358.17951 117.75348,358.15076 117.86598,358.09201 C 127.41473,355.49451 136.78722,351.05576 143.43722,343.58951 C 143.76472,343.22326 144.09097,342.85826 144.40097,342.48201 C 159.34972,324.28326 166.59097,313.45326 174.20847,297.92076 C 177.81722,290.55326 183.40347,288.82951 187.05972,290.34826 C 191.81847,292.31576 194.76097,299.74201 190.60222,311.89576 C 182.22597,336.38326 158.75722,361.10451 151.76472,368.09701 M 92.787228,401.83201 C 97.284728,398.11201 102.03098,392.74576 107.00223,385.75826 L 116.63098,394.02951 C 111.70348,400.12326 104.51598,405.12326 100.09723,407.872 L 92.787228,401.83201 M 108.09598,384.21951 C 108.75973,383.25826 109.43348,382.25701 110.10723,381.23701 C 111.12723,381.24576 112.06973,381.25076 112.90473,381.25576 C 111.65473,382.26201 110.33598,383.55576 108.98848,384.92826 L 108.95473,384.96201 L 108.09598,384.21951 M 112.68973,331.37326 C 117.86598,336.33451 123.44973,339.79076 129.51598,341.78826 L 116.93348,356.40701 C 116.54723,356.51451 116.15723,356.61201 115.76598,356.71076 C 114.74848,346.49076 111.86973,339.80076 107.19723,336.83201 L 112.68973,331.37326 M 105.42973,335.93826 C 105.31723,335.89451 105.19973,335.85576 105.08473,335.81201 C 105.99598,333.77576 107.98348,329.02951 108.04598,326.39326 C 109.13098,327.68701 110.23848,328.89826 111.36223,330.04951 L 105.42973,335.93826 M 131.48348,342.37951 C 134.42847,343.18451 137.48472,343.66326 140.66097,343.80451 C 135.08722,349.39576 127.81723,353.07201 120.22473,355.46076 L 131.48348,342.37951 M 45.404732,377.23326 C 35.453483,374.54701 18.759734,359.98701 14.487235,352.66201 C 11.854735,348.15576 7.4559851,340.60701 9.367235,335.08451 C 10.209735,332.65701 12.158485,330.80201 15.284735,329.41576 C 18.564734,335.66576 23.329734,340.95826 23.608484,341.26576 C 23.954734,341.65201 24.550984,341.67576 24.930984,341.32951 C 25.317234,340.98326 25.343484,340.38701 24.994734,340.00576 C 24.902234,339.90326 15.783484,329.78576 14.287235,321.40701 C 13.022235,314.32201 13.593485,309.28326 15.980984,306.42701 C 17.479734,304.63951 19.777234,303.66326 22.807234,303.49701 C 23.275984,311.80326 32.225983,322.31076 32.655983,322.80826 C 32.992233,323.19951 33.583483,323.24826 33.974733,322.90701 C 34.369733,322.56951 34.413483,321.97826 34.077233,321.58826 C 33.969733,321.46576 24.384734,310.21076 24.658484,302.55951 C 24.658484,302.54576 24.664734,302.53576 24.664734,302.52576 C 24.664734,302.51576 24.658484,302.50576 24.658484,302.49576 C 24.682234,301.93451 24.755984,301.39326 24.894734,300.87951 C 28.378483,287.94576 36.747233,280.86077 46.444732,282.41326 C 45.995982,283.15576 45.599732,283.90701 45.302232,284.66951 C 42.425982,292.02701 44.838482,304.65451 44.945982,305.19201 C 45.043482,305.69951 45.537232,306.03201 46.044732,305.92951 C 46.552232,305.83076 46.884732,305.33826 46.787232,304.83076 C 46.762232,304.70326 44.369732,292.19826 47.050982,285.35326 C 49.648482,278.71202 59.433481,272.19827 66.80098,272.19827 C 74.04223,272.19827 82.597229,283.01451 86.288479,289.83076 C 89.635979,296.00701 89.472229,305.78201 78.319729,313.29201 C 71.82098,304.95201 72.73848,299.86451 71.91848,300.01076 C 70.78598,299.93326 72.18223,309.00951 77.32348,314.78576 C 77.34848,314.86451 77.36723,314.94701 77.41723,315.02076 C 77.51973,315.18201 77.67098,315.28451 77.83598,315.35826 C 82.694729,321.41201 90.424728,326.74951 90.634728,326.49076 C 91.108478,325.95826 86.552229,322.83826 79.510979,314.74701 C 85.209729,310.85576 88.324729,306.20201 89.487229,301.58326 C 90.448478,301.56826 91.400978,301.52451 92.323478,301.47076 C 94.144728,301.37326 95.780978,301.28576 97.230978,301.44201 C 97.264728,301.44701 97.294728,301.46576 97.328478,301.46576 C 97.350978,301.46576 97.367228,301.45576 97.392228,301.45576 C 99.907228,301.76451 101.83598,302.84826 103.11973,305.99201 C 106.09098,313.24826 106.17598,324.95201 106.17598,326.26076 C 106.17598,328.41451 104.28723,333.03826 103.25598,335.31326 C 100.94723,334.91826 98.403478,335.23576 95.727228,336.26576 C 93.685978,331.92951 90.292229,329.49326 85.829729,329.24951 C 73.84223,328.58951 57.807231,342.94076 50.350982,356.75451 C 46.982232,362.99451 45.350982,370.30451 45.404732,377.23326 M 68.07598,400.04576 C 68.07598,400.04076 68.07098,400.04076 68.06848,400.03576 C 67.95848,399.88451 67.80223,399.78201 67.63098,399.71826 C 64.917231,396.25576 60.990981,384.10326 60.760981,384.09326 C 59.907231,384.19576 62.988481,396.29576 65.93723,399.94201 C 59.305981,401.31451 55.073481,398.10701 52.658482,395.06951 C 45.807232,386.45576 45.512232,369.66451 52.002232,357.64326 C 59.925981,342.96451 75.68348,330.56701 85.727229,331.11951 C 89.515979,331.32951 92.304728,333.35076 94.052228,337.09576 C 89.013479,339.08326 81.847229,348.16576 82.514729,348.50701 C 82.689729,348.52201 90.844728,340.19201 94.850978,338.30701 C 95.082228,338.41951 95.355978,338.44326 95.612228,338.34076 C 95.732228,338.29201 95.839728,338.21951 95.924728,338.13076 C 96.019728,338.12576 96.113478,338.11701 96.205978,338.08201 C 100.02848,336.56326 103.35848,336.65201 106.09598,338.34576 C 110.29223,340.94326 112.99098,347.44201 113.92598,357.14451 C 110.98098,357.81326 108.05098,358.31701 105.20973,358.69201 C 105.46848,356.08076 104.17473,353.51701 101.84723,352.52076 C 99.809728,351.64701 92.465978,350.25076 83.457229,368.98076 C 81.267229,373.53201 80.184729,377.06201 79.799729,379.80076 C 79.799729,379.82076 79.789729,379.83576 79.787229,379.85451 C 79.787229,379.86451 79.789729,379.86951 79.789729,379.87951 C 78.979729,385.81201 81.444729,387.98451 82.924729,388.73701 C 87.489729,391.05576 94.970978,387.34951 98.447228,381.09451 C 101.70848,381.14326 104.98473,381.18826 107.86098,381.21701 C 96.957228,397.43826 86.938479,406.10451 78.842229,406.27076 C 74.72098,406.35326 71.09848,404.25951 68.07598,400.04576 M 81.327229,432.677 C 86.162229,434.48825 90.707228,437.11575 91.449728,437.862 C 91.815978,438.22825 92.412228,438.22825 92.778478,437.862 C 93.144728,437.49575 93.144728,436.90075 92.778478,436.5345 C 91.567228,435.32325 84.310979,431.3145 78.290979,429.72825 C 74.82348,428.8145 72.68973,427.29575 71.57723,424.947 C 69.80223,421.212 70.69848,415.2845 74.18473,407.3545 C 75.67348,407.902 77.23598,408.1795 78.880979,408.14575 C 81.034729,408.102 83.273479,407.53575 85.590979,406.49076 C 83.475979,411.1295 83.158479,413.87325 84.564729,415.21075 C 86.684729,417.22325 91.595978,415.02575 98.834728,410.822 C 106.69598,406.25576 124.56973,394.31701 123.82348,380.57701 C 128.33973,380.00576 133.58348,379.02451 138.58847,377.41326 C 142.59722,384.57201 140.70722,395.24076 139.77472,400.45576 C 139.50222,401.98826 139.30097,403.10201 139.30097,403.76076 C 139.30097,404.27826 139.72097,404.69826 140.23847,404.69826 C 140.75597,404.69826 141.17597,404.27826 141.17597,403.76076 C 141.17597,403.26826 141.38097,402.11576 141.62097,400.78201 C 142.07472,398.25326 142.73847,394.47826 142.88972,390.39701 C 147.04097,390.75826 151.02722,393.56076 153.46097,397.95076 C 156.17597,402.85326 156.19347,408.34075 153.50847,412.63825 C 148.73472,420.2745 134.21347,443.512 107.17723,450.98325 C 100.36598,452.862 93.647228,451.80325 88.739729,448.067 C 84.230979,444.6345 81.647229,439.19575 81.327229,432.677 M 112.77348,510.6795 C 66.98723,524.8895 12.963485,512.60325 4.9259853,509.752 C 3.0272355,509.07825 2.0022356,508.2145 1.8847356,507.18325 C 1.3597356,502.54075 16.693484,492.7795 23.242234,488.6145 L 24.013484,488.12575 C 41.108482,477.237 72.93473,456.9695 103.54973,473.33575 C 104.00348,473.58075 104.57223,473.4095 104.81598,472.95075 C 105.06098,472.49575 104.88723,471.9295 104.43348,471.68575 C 94.277228,466.25575 84.037229,464.71825 74.23348,465.4845 C 76.57723,463.67825 78.823479,461.25575 80.790979,458.79575 C 107.05973,459.112 133.74473,487.027 140.16847,496.29075 C 131.91348,502.43325 122.73348,507.5895 112.77348,510.6795 M 141.66472,495.162 C 135.08222,485.74825 108.66723,458.22825 82.207229,456.9695 C 84.592229,453.78075 86.420979,450.787 87.297229,449.29325 C 87.402229,449.37575 87.494729,449.47325 87.602229,449.557 C 92.983478,453.64825 100.29723,454.83075 107.67598,452.7895 C 110.35098,452.047 112.90473,451.15825 115.34098,450.14825 C 130.30723,451.7545 150.63222,467.042 156.99722,481.39325 C 152.35347,486.18325 147.22597,490.8845 141.66472,495.162 M 158.39347,479.92825 C 151.88972,466.197 133.34473,451.847 118.47098,448.75075 C 139.32597,438.8445 150.90347,420.34325 155.09722,413.6345 C 155.99597,412.19325 156.62097,410.64575 156.99222,409.0295 C 174.67472,411.5195 181.63972,423.917 183.85222,429.332 C 184.32597,433.34575 185.13097,437.877 186.22222,441.91075 C 184.83847,444.47325 174.81847,462.54575 158.39347,479.92825 M 188.21722,442.067 C 186.36722,435.44575 185.23847,427.00825 185.23847,422.19825 C 185.23847,400.78201 207.67597,380.22576 218.53972,373.62451 C 219.46222,373.06326 220.36097,372.52576 221.26972,371.97826 C 211.31347,384.93826 212.55347,398.43326 213.11972,404.56201 C 213.19847,405.42576 213.26097,406.14326 213.28597,406.70575 C 198.56847,420.782 189.72597,433.12075 188.21722,442.067 M 348.24221,341.33451 C 347.75346,350.80201 322.42096,392.71576 289.33596,419.59575 C 254.11097,448.2195 206.28847,461.422 193.30097,451.7595 C 192.74097,451.3445 192.25597,450.8945 191.83597,450.407 C 191.72347,450.2745 191.61347,450.13325 191.50347,449.982 C 191.49347,449.967 191.48097,449.952 191.46972,449.93825 C 191.19847,449.557 190.93222,449.117 190.67347,448.6345 C 190.12847,447.477 189.85597,446.16825 189.85847,444.68325 C 189.87222,431.67575 211.06847,407.902 245.17597,382.63826 C 288.32971,350.67451 341.98721,334.01951 348.01721,340.04951 C 348.08096,340.11326 348.29096,340.39701 348.24221,341.33451 M 250.92222,355.46076 C 309.12096,325.84076 334.30596,331.24576 344.12096,337.07701 C 327.74346,336.17326 281.39096,353.47826 244.05722,381.13451 C 241.02972,383.37576 238.10972,385.60201 235.29722,387.80826 C 234.45722,381.68576 237.77347,362.62326 250.92222,355.46076 M 242.74847,359.74201 C 234.25722,369.54701 232.54847,384.43951 233.65222,389.10326 C 226.74222,394.58576 220.51222,399.92326 215.04347,405.04576 C 215.02847,404.83576 215.00972,404.62076 214.98472,404.38576 C 214.32597,397.26701 212.96347,382.46201 226.45472,368.90201 C 232.13347,365.57201 237.56347,362.52576 242.74847,359.74201 M 240.40972,358.87326 C 238.10472,360.12326 235.76597,361.42201 233.40347,362.75451 C 233.11472,362.91576 232.82722,363.08201 232.53847,363.24826 C 230.22472,364.55701 227.88972,365.89951 225.52722,367.28201 C 225.52222,367.28576 225.52222,367.28576 225.51722,367.28576 C 225.47972,367.30951 225.44097,367.33451 225.40347,367.35701 C 225.40222,367.35826 225.40097,367.35826 225.39972,367.35951 C 225.32722,367.40201 225.25222,367.44701 225.17847,367.49076 C 224.15847,368.08701 223.13847,368.68826 222.10847,369.29826 C 222.04972,369.33451 221.98722,369.37076 221.92722,369.40826 C 220.48347,370.26326 219.03347,371.13201 217.56847,372.02326 C 208.30472,377.64826 190.87847,393.18951 185.20972,411.007 C 183.43222,409.49825 182.83472,407.1595 182.66597,405.33326 C 182.03347,398.44326 186.46972,386.82701 197.70972,377.60826 C 198.10972,377.28201 198.16847,376.69076 197.84097,376.29076 C 197.51472,375.88951 196.92347,375.83076 196.52347,376.15826 C 191.41597,380.34326 187.66097,385.03076 185.09222,389.60076 C 183.03722,385.63576 182.91972,381.05576 184.77722,375.95326 C 188.81847,364.85451 202.32347,352.77951 214.88222,349.03451 C 225.39972,345.89451 232.44097,345.80701 236.40097,348.76076 C 239.00847,350.70451 240.31722,354.02451 240.40972,358.87326 M 236.45472,328.48701 C 238.24222,330.27451 236.78222,339.38576 235.06847,345.89951 C 230.46847,344.01951 223.65222,344.45951 214.34597,347.23701 C 212.08472,347.91076 209.81472,348.84451 207.57722,349.96201 C 207.68472,349.57201 207.79722,349.13701 207.91972,348.66326 C 207.92472,348.63951 207.92972,348.60951 207.93972,348.58576 C 208.04972,348.13826 208.16472,347.64951 208.27847,347.14076 C 208.28722,347.10201 208.29597,347.06326 208.30472,347.02451 C 208.41472,346.52576 208.52472,345.99951 208.63222,345.45201 C 208.64347,345.39451 208.65472,345.33951 208.66597,345.28076 C 208.77972,344.68701 208.89097,344.07826 208.99347,343.43826 C 208.99347,343.43451 208.99472,343.43076 208.99722,343.42576 C 208.99722,343.42326 208.99722,343.42076 208.99847,343.41951 C 209.08222,342.88201 209.15972,342.33576 209.23347,341.77826 C 209.24597,341.68326 209.25597,341.58701 209.26972,341.49201 C 209.27097,341.48451 209.27097,341.47826 209.27222,341.47076 C 209.28847,341.34701 209.29847,341.21826 209.31347,341.09201 C 209.35347,340.74326 209.39597,340.39576 209.42847,340.03576 C 209.44722,339.84201 209.45972,339.64201 209.47472,339.44201 C 209.47972,339.36826 209.48722,339.29826 209.49222,339.22451 C 209.51597,338.88326 209.54597,338.54076 209.56472,338.18951 C 209.56597,338.17201 209.56597,338.15451 209.56597,338.13576 C 209.59722,337.51576 209.61347,336.88951 209.61347,336.26076 C 209.61347,335.74326 209.19347,335.32326 208.67597,335.32326 C 208.15847,335.32326 207.73847,335.74326 207.73847,336.26076 C 207.73847,337.67701 207.65097,339.09826 207.50472,340.47451 C 204.09597,338.44826 195.34097,340.44576 182.59472,343.69201 C 179.38972,344.50826 176.32347,345.28951 173.58097,345.89951 C 177.85597,340.21576 182.06972,333.96076 185.65347,327.43326 C 205.98097,320.75326 229.17972,321.21701 236.45472,328.48701 M 195.61472,322.83326 C 192.71472,323.43826 189.79972,324.18076 186.91847,325.05951 C 189.05972,320.93826 190.93222,316.72951 192.37722,312.50076 C 196.92847,299.20076 193.34472,290.91951 187.77847,288.61451 C 183.33472,286.77326 176.66722,288.64326 172.52347,297.09576 C 170.98597,300.23576 169.45722,303.17451 167.88097,306.03201 C 170.07472,295.31826 172.24597,282.64326 172.54847,273.24327 C 180.48347,280.52327 190.92472,286.88076 202.72472,291.30451 C 203.60847,291.63701 204.50597,291.94951 205.40972,292.25701 C 206.45972,302.48201 199.76097,318.42451 195.61472,322.83326 M 235.96097,319.26826 C 223.21722,311.27076 208.05097,312.85826 202.92972,313.70701 C 205.62472,307.26201 207.76347,299.29326 207.34347,292.88701 C 215.45847,295.46951 224.27222,297.15951 233.11972,298.00451 C 236.22972,304.85951 236.12722,315.30826 235.96097,319.26826 M 203.38347,289.55201 C 191.06472,284.93326 180.26597,278.18952 172.36972,270.52827 C 172.32597,270.46952 172.27972,270.42577 172.22347,270.38202 C 166.16722,264.46952 161.83597,258.01577 159.86347,251.56827 C 157.68472,244.45827 158.62222,237.76702 162.56847,232.21952 C 167.98847,224.59827 174.22847,220.68452 181.12222,220.58952 C 190.64847,220.45952 201.26472,227.76452 211.83597,241.70952 C 217.36347,252.92327 225.11722,258.50702 234.24222,263.86827 C 242.31472,268.60952 253.91097,267.52077 265.13096,266.46827 C 273.45221,265.68952 281.42096,264.94202 286.96721,266.75452 C 283.72471,269.26827 281.95721,272.21327 282.43596,275.04952 C 283.09596,278.97577 287.87096,281.69576 294.41846,282.51076 C 284.45721,297.77451 235.64472,301.65201 203.38347,289.55201 M 306.89471,271.62202 C 301.64471,272.92077 297.03596,272.54077 296.59596,270.76327 C 296.15721,268.99077 300.05346,266.50077 305.30221,265.19702 C 310.54596,263.89827 315.16096,264.27827 315.59971,266.05077 C 316.03971,267.82327 312.14346,270.31827 306.89471,271.62202 M 313.64221,260.82577 C 310.13596,260.29327 306.06471,260.31827 301.80096,261.03327 C 296.70846,261.89077 292.18721,263.58952 288.78346,265.71952 C 282.77846,263.20452 274.05721,264.01202 264.92096,264.86952 C 253.99847,265.89452 242.70472,266.95452 235.16097,262.51952 C 218.38347,252.66702 206.39097,242.01702 204.78972,194.41202 C 203.89097,167.76452 213.89597,155.13703 222.44597,149.23703 C 233.53472,141.58703 247.07472,141.75078 255.57097,145.30828 C 269.87221,151.29453 286.43471,171.14577 288.17346,207.67202 C 287.63096,206.60202 286.93346,205.88452 286.05971,205.63077 C 281.64971,204.33952 274.68721,214.89077 270.50721,229.19452 C 266.32346,243.49702 266.50846,256.13827 270.91721,257.42452 C 275.32221,258.71702 282.28471,248.16452 286.46971,233.86327 C 287.47096,230.43077 288.21721,227.09577 288.72096,223.98952 C 289.58971,234.03327 292.01346,239.30452 295.74221,240.47952 C 297.43346,241.01327 299.90221,240.13702 300.29221,240.13202 C 299.85346,243.32327 298.90846,248.01327 298.78096,251.73827 C 298.66721,255.11327 298.92096,257.91577 301.28596,257.77702 C 302.67596,257.69577 304.51846,255.87452 305.99346,254.06827 C 311.93096,246.78327 319.07221,226.30202 317.07971,215.55452 C 328.12971,194.00452 334.32596,186.74827 336.31346,187.21702 C 336.42971,187.24452 337.49471,187.63202 337.49471,192.36202 C 337.49471,221.94202 329.47221,244.97577 313.64221,260.82577 M 282.87346,221.37702 C 280.54846,227.51577 277.84846,231.07952 276.47221,230.56202 C 275.10471,230.04202 275.58096,225.64077 277.90471,219.49827 C 280.22471,213.35452 282.79471,210.34202 284.16721,210.85702 C 285.53971,211.37702 285.19221,215.23452 282.87346,221.37702 z"
     style="fill:#000000;stroke:none;stroke-width:1;stroke-linejoin:miter;marker-start:none;marker-end:none;stroke-miterlimit:79.84031677" />
  <path
     d="M 201.60097,260.89702 C 195.24847,254.23702 187.08222,248.16702 183.76972,245.97202 C 183.49097,245.78702 183.16347,245.75202 182.91472,245.83327 C 182.97847,245.80827 183.02972,245.77952 183.09597,245.75452 C 190.68847,244.15077 194.04472,247.12952 194.25722,246.05327 C 194.61847,245.64077 188.29597,242.27077 182.47472,244.20702 C 175.65847,245.76702 175.61722,254.60952 176.29347,254.07327 C 177.19472,254.60327 175.62972,248.72827 182.82722,245.86952 C 182.44597,246.05577 182.35097,246.55827 183.20722,247.24202 C 187.25347,250.37702 195.23347,256.40202 201.36222,262.54202 C 207.97847,268.50702 209.84347,275.86577 209.72097,275.94827 C 210.49222,275.97827 208.63722,267.19827 201.60097,260.89702 z"
     style="fill:#000000;stroke:none;stroke-width:1;stroke-linejoin:miter;marker-start:none;marker-end:none;stroke-miterlimit:79.84031677" />
</svg>
